<?xml version="1.0" standalone="no"?>
<!DOCTYPE svg PUBLIC "-//W3C//DTD SVG 20010904//EN"
 "http://www.w3.org/TR/2001/REC-SVG-20010904/DTD/svg10.dtd">
<svg version="1.0" xmlns="http://www.w3.org/2000/svg"
 width="1024.000000pt" height="1024.000000pt" viewBox="0 0 1024.000000 1024.000000"
 preserveAspectRatio="xMidYMid meet">

<g transform="translate(0.000000,1024.000000) scale(0.100000,-0.100000)"
fill="#000000" stroke="none">
<path d="M4845 7949 c-52 -6 -106 -18 -128 -29 -21 -11 -47 -20 -58 -20 -73 0
-434 -104 -423 -122 3 -4 -2 -5 -10 -2 -14 5 -66 -16 -95 -39 -7 -6 -20 -12
-30 -14 -9 -1 -37 -12 -64 -24 -39 -19 -46 -26 -41 -43 4 -16 3 -17 -4 -7 -9
12 -15 12 -44 1 -54 -21 -139 -71 -134 -79 3 -4 -4 -8 -15 -8 -35 -3 -265
-167 -263 -188 1 -7 -4 -11 -10 -9 -7 3 -21 -4 -31 -16 -18 -19 -18 -20 1 -21
14 0 15 -2 4 -6 -8 -4 -22 -14 -31 -25 -9 -10 -24 -18 -33 -18 -10 0 -16 -8
-16 -21 0 -15 -4 -19 -16 -15 -18 7 -44 -10 -44 -27 0 -5 10 -2 21 9 15 13 21
15 17 4 -2 -8 -18 -21 -34 -30 -16 -9 -34 -30 -39 -48 -6 -17 -21 -42 -34 -56
-13 -13 -20 -29 -17 -35 4 -6 1 -9 -6 -6 -8 3 -27 -8 -43 -25 -18 -19 -39 -30
-56 -30 -22 0 -26 -4 -22 -20 4 -14 0 -20 -11 -20 -9 0 -16 -8 -16 -17 0 -13
-2 -15 -8 -5 -6 9 -22 -6 -53 -50 -60 -85 -80 -118 -71 -118 4 0 -1 -5 -11
-11 -14 -8 -16 -14 -6 -25 9 -11 6 -16 -16 -24 -15 -6 -25 -13 -22 -17 3 -3
-2 -13 -13 -22 -20 -18 -133 -235 -133 -257 0 -8 -4 -14 -7 -14 -7 0 -34 -56
-35 -70 0 -3 -3 -9 -7 -15 -12 -20 -87 -251 -93 -290 -4 -22 -13 -61 -20 -86
-7 -25 -10 -58 -7 -74 3 -18 1 -26 -5 -22 -6 4 -13 -11 -16 -36 -3 -23 -13
-87 -22 -142 -23 -142 -24 -604 -2 -636 11 -16 14 -35 10 -70 -5 -40 -3 -49
10 -49 9 0 19 -5 23 -12 4 -7 3 -8 -4 -4 -7 4 -12 2 -12 -3 0 -6 6 -11 14 -11
7 0 16 -14 20 -31 8 -43 8 -46 -10 -64 -15 -14 -14 -23 6 -108 25 -101 67
-225 82 -244 6 -7 7 -13 3 -13 -5 0 -1 -8 8 -18 10 -10 15 -21 12 -24 -9 -9
17 -68 28 -61 6 3 7 1 3 -5 -4 -6 14 -54 40 -107 45 -91 64 -120 64 -96 0 6 8
11 19 11 21 0 35 -45 21 -70 -17 -32 7 -50 70 -50 l60 0 0 80 c0 52 -4 80 -11
80 -6 0 -9 9 -6 20 4 15 -3 27 -24 42 -16 12 -29 30 -29 39 0 10 -9 39 -20 65
-11 26 -18 49 -16 52 8 7 -21 32 -38 32 -9 0 -16 7 -16 15 0 8 -4 15 -9 15 -5
0 -7 18 -4 40 4 25 2 40 -5 40 -6 0 -14 21 -18 48 -4 26 -15 54 -25 63 -12 10
-19 30 -19 53 0 20 -4 36 -10 36 -6 0 -10 40 -10 100 0 60 -4 100 -10 100 -5
0 -10 9 -10 20 0 11 5 20 10 20 6 0 10 9 10 20 0 11 -4 20 -10 20 -6 0 -10 80
-10 220 0 140 -4 220 -10 220 -5 0 -10 9 -10 20 0 11 5 20 10 20 6 0 10 9 10
20 0 11 5 20 10 20 6 0 10 9 10 20 0 11 -4 20 -10 20 -6 0 -10 27 -10 60 0 33
-4 60 -10 60 -5 0 -10 9 -10 20 0 11 5 20 10 20 6 0 10 9 10 20 0 11 5 20 10
20 6 0 10 9 10 20 0 11 -4 20 -10 20 -18 0 -11 35 10 50 21 15 28 70 10 70
-13 0 -13 80 0 100 8 13 10 12 10 -2 0 -11 8 -18 19 -18 19 0 30 32 31 89 1
34 26 105 40 109 5 2 10 12 10 23 0 10 5 19 10 19 6 0 10 7 10 16 0 8 6 22 14
30 8 8 18 35 22 61 4 26 16 57 28 70 12 13 29 33 39 43 9 11 13 20 7 20 -5 0
-10 9 -10 20 0 11 5 20 10 20 6 0 10 9 10 20 0 11 5 20 10 20 6 0 10 8 10 18
0 10 9 24 20 32 11 8 20 21 20 30 0 9 9 22 20 30 11 8 20 22 20 32 0 10 5 18
10 18 6 0 10 8 10 18 0 10 9 24 20 32 11 8 20 22 20 32 0 11 7 18 20 18 11 0
20 4 20 9 0 5 9 11 20 14 14 3 20 14 20 31 0 17 5 26 16 26 20 0 44 24 44 44
0 9 5 16 10 16 6 0 10 -4 10 -10 0 -5 5 -10 10 -10 6 0 10 9 10 20 0 23 15 27
24 5 3 -8 10 -15 15 -15 6 0 7 8 4 17 -5 12 -2 15 8 11 8 -3 20 1 27 8 11 12
10 14 -4 14 -16 0 -16 2 1 20 9 10 15 26 12 35 -5 11 1 15 24 15 18 0 28 -4
24 -10 -11 -17 4 -11 33 14 15 14 37 33 49 44 13 10 19 23 15 27 -4 5 -2 5 4
2 11 -7 42 14 92 60 13 12 33 25 43 28 11 4 19 13 19 21 0 8 8 14 19 14 10 0
24 7 31 15 8 9 8 15 2 15 -6 0 -13 -6 -15 -12 -3 -8 -6 -5 -6 6 -1 14 4 17 24
14 14 -3 25 -1 25 4 0 5 4 6 10 3 6 -4 7 1 3 11 -5 14 -3 16 11 11 13 -5 17
-3 13 7 -4 10 1 13 18 11 14 -1 22 1 20 5 -5 8 17 20 43 26 23 4 27 14 6 14
-36 1 19 24 68 29 4 1 5 8 2 16 -5 11 1 15 17 15 19 0 21 -2 9 -10 -9 -6 -10
-10 -3 -10 7 0 17 8 22 18 6 11 19 18 33 17 22 -2 77 21 89 38 3 5 10 9 15 9
5 0 18 4 29 8 34 14 180 64 185 65 25 3 100 31 100 38 0 4 5 5 10 2 12 -7 189
24 205 36 6 4 48 11 95 15 83 8 84 9 35 15 l-50 6 51 1 c28 1 54 -1 57 -5 4
-3 37 -7 75 -8 105 -3 346 -24 462 -41 396 -57 762 -211 1079 -452 354 -270
673 -737 796 -1166 135 -472 139 -930 10 -1375 -81 -282 -251 -592 -442 -806
-408 -457 -1014 -783 -1556 -835 -154 -15 -452 -8 -579 14 -219 38 -458 115
-633 204 -156 80 -150 78 -140 62 5 -9 4 -11 -4 -6 -6 4 -9 11 -6 16 5 8 -23
25 -37 22 -5 -1 -8 2 -8 7 0 5 -7 12 -16 15 -14 5 -15 4 -4 -9 8 -9 8 -15 2
-15 -6 0 -13 9 -17 19 -3 11 -12 25 -21 32 -12 10 -13 9 -8 -5 5 -12 2 -15
-10 -10 -10 4 -15 12 -12 19 5 13 -52 61 -61 52 -2 -3 7 -13 21 -22 26 -17 39
-54 14 -38 -7 4 -22 6 -33 4 -16 -2 -17 0 -7 12 11 12 3 14 -58 9 -66 -4 -70
-4 -70 17 0 14 -6 21 -20 21 -11 0 -20 6 -20 14 0 9 -15 17 -40 21 -30 5 -40
11 -40 26 0 10 -4 19 -10 19 -5 0 -10 9 -10 20 0 13 -7 20 -20 20 -11 0 -20 6
-20 14 0 8 -9 18 -20 21 -11 3 -20 13 -20 21 0 8 -7 14 -16 14 -8 0 -22 7 -30
15 -9 8 -24 15 -35 15 -12 0 -19 7 -19 20 0 14 -7 20 -21 20 -15 0 -19 5 -15
15 11 29 -5 45 -45 45 -32 0 -39 3 -39 20 0 11 -6 20 -12 20 -7 0 -22 3 -33 5
-34 9 -48 -7 -34 -39 7 -15 18 -25 26 -22 7 3 13 -1 13 -9 0 -8 7 -15 16 -15
8 0 22 -6 30 -14 16 -17 19 -30 4 -21 -6 3 -14 -5 -20 -19 -5 -14 -17 -26 -25
-26 -9 0 -13 -5 -10 -11 4 -6 13 -8 21 -5 8 3 14 1 14 -4 0 -6 -5 -10 -11 -10
-5 0 -7 -5 -4 -10 4 -6 11 -7 17 -4 6 4 8 2 5 -3 -10 -16 202 -208 227 -205
13 1 17 -1 9 -6 -8 -5 -2 -16 21 -34 30 -24 33 -25 29 -8 -4 14 0 20 12 20 14
0 16 -7 13 -30 -3 -19 0 -30 7 -30 7 0 20 -9 30 -20 18 -19 41 -28 31 -12 -3
5 1 9 7 9 7 0 14 -9 14 -19 2 -22 31 -47 93 -79 25 -13 47 -27 50 -30 37 -41
461 -246 482 -233 6 4 8 2 5 -3 -4 -6 1 -13 11 -16 9 -2 74 -23 143 -45 135
-44 215 -60 454 -92 244 -32 470 -22 759 34 437 86 881 306 1241 617 130 112
305 305 385 424 172 256 198 303 269 468 113 264 165 477 191 792 46 556 -62
1075 -318 1525 -75 132 -189 303 -270 405 -72 91 -254 272 -362 361 -326 269
-767 464 -1245 550 -109 19 -544 28 -680 13z m-932 -340 c-8 -8 -13 -7 -18 2
-5 8 -4 10 3 5 7 -4 12 -2 12 5 0 7 3 9 7 6 4 -4 2 -12 -4 -18z m-123 -69 c0
-5 -5 -10 -11 -10 -5 0 -7 5 -4 10 3 6 8 10 11 10 2 0 4 -4 4 -10z m140 -150
c0 -5 -4 -10 -10 -10 -5 0 -10 5 -10 10 0 6 5 10 10 10 6 0 10 -4 10 -10z
m-375 -300 c-3 -5 -12 -7 -20 -3 -21 7 -19 13 6 13 11 0 18 -4 14 -10z m-825
-2594 c0 -3 -4 -8 -10 -11 -5 -3 -10 -1 -10 4 0 6 5 11 10 11 6 0 10 -2 10 -4z
m545 -925 c-6 -5 -25 10 -25 20 0 5 6 4 14 -3 8 -7 12 -15 11 -17z m25 -23 c0
-4 -4 -8 -9 -8 -6 0 -12 4 -15 8 -3 5 1 9 9 9 8 0 15 -4 15 -9z m55 -48 c3 -5
1 -10 -4 -10 -6 0 -11 5 -11 10 0 6 2 10 4 10 3 0 8 -4 11 -10z m168 -66 c8
-8 -3 -34 -14 -34 -5 0 -9 9 -9 20 0 19 11 26 23 14z"/>
<path d="M7330 7588 c-150 -43 -177 -244 -46 -340 36 -26 47 -29 96 -26 73 5
123 38 155 102 14 28 25 66 25 85 -1 79 -62 160 -138 181 -43 12 -46 11 -92
-2z"/>
<path d="M2854 7579 c-18 -5 -45 -24 -62 -43 -58 -66 -51 -165 17 -236 35 -37
42 -40 90 -40 73 0 119 28 153 94 39 77 3 173 -82 216 -42 21 -67 23 -116 9z"/>
<path d="M3270 7150 c-8 -26 -7 -41 2 -32 6 6 8 16 5 24 -3 7 -6 11 -7 8z"/>
<path d="M4111 7049 c-41 -40 -43 -94 -5 -138 45 -54 114 -38 148 33 21 44 13
78 -26 111 -41 34 -79 32 -117 -6z"/>
<path d="M5518 6538 c1 -216 5 -403 7 -415 8 -36 26 -28 84 37 53 61 77 72 87
45 18 -45 22 15 22 308 0 177 4 343 10 370 l9 47 -111 0 -111 0 3 -392z"/>
<path d="M3325 6869 c-4 -6 -5 -12 -2 -15 2 -3 7 2 10 11 7 17 1 20 -8 4z"/>
<path d="M4405 6721 c4 -13 8 -211 8 -440 l2 -417 100 -102 100 -102 0 535 0
535 -40 0 c-22 0 -71 3 -109 7 -68 6 -68 6 -61 -16z"/>
<path d="M3701 6648 c-44 -29 -73 -87 -79 -153 -4 -44 -1 -55 23 -83 33 -39
93 -72 133 -72 18 0 38 10 57 30 16 17 35 30 42 30 20 0 43 63 45 121 1 80
-50 135 -137 145 -42 5 -56 2 -84 -18z"/>
<path d="M5950 6511 l-65 -6 -3 -233 -2 -232 37 -33 c20 -17 68 -65 107 -105
l71 -73 0 345 0 346 -40 -2 c-22 -1 -69 -4 -105 -7z"/>
<path d="M6996 6448 c-3 -17 -6 -60 -6 -96 l0 -66 55 54 55 54 -33 34 c-51 53
-64 57 -71 20z"/>
<path d="M6624 6308 c3 -29 6 -129 6 -223 l1 -170 36 40 c19 22 67 72 104 112
l69 71 0 111 0 111 -111 0 -112 0 7 -52z"/>
<path d="M5145 6016 c0 -245 3 -312 12 -304 7 5 15 18 18 29 4 11 11 17 16 14
5 -4 9 0 10 7 0 11 105 107 141 129 9 6 12 70 13 223 l0 216 -105 0 -105 0 0
-314z"/>
<path d="M6260 6263 c0 -2 -1 -131 -1 -286 l-1 -282 42 -37 c46 -41 60 -46 60
-24 0 8 24 40 53 71 l54 56 -1 207 c-1 114 3 228 7 254 l8 48 -110 -2 c-61 -1
-111 -3 -111 -5z"/>
<path d="M4778 5881 c3 -196 1 -298 -6 -320 -11 -30 -9 -33 40 -79 28 -26 54
-47 58 -47 15 0 81 97 94 138 9 29 14 116 15 282 1 132 6 257 11 278 l8 37
-113 0 -112 0 5 -289z"/>
<path d="M7091 6056 c-46 -40 -86 -79 -90 -87 -4 -8 -4 -108 1 -224 5 -115 7
-478 3 -805 l-5 -595 62 115 c35 64 83 158 108 210 l45 95 3 580 c3 574 -2
706 -30 760 l-13 24 -84 -73z"/>
<path d="M4170 6113 c0 -5 16 -25 36 -44 33 -31 35 -32 32 -11 -3 22 -68 74
-68 55z"/>
<path d="M5643 5893 c-28 -44 -35 -52 -84 -102 -36 -35 -46 -52 -43 -71 2 -14
5 -569 6 -1233 1 -868 4 -1207 12 -1205 77 23 163 52 169 58 4 4 10 540 12
1191 3 651 7 1202 10 1225 3 22 8 53 11 68 3 20 -3 38 -21 62 -32 41 -49 43
-72 7z"/>
<path d="M4086 5808 c-15 -20 -22 -36 -16 -42 5 -5 3 -23 -5 -44 -13 -29 -15
-191 -15 -1097 l0 -1063 23 -6 c12 -3 48 -21 80 -40 31 -19 57 -29 57 -23 1 7
6 2 13 -10 10 -18 12 -3 12 90 0 62 2 569 3 1127 l3 1015 -21 17 c-12 10 -19
18 -15 18 4 0 2 7 -5 15 -7 8 -17 12 -23 8 -5 -3 -7 -1 -4 4 8 12 -33 63 -50
63 -6 0 -23 -15 -37 -32z"/>
<path d="M6798 5773 c-18 -20 -66 -71 -107 -114 -49 -52 -70 -82 -65 -91 4 -7
7 -390 5 -852 l-3 -839 59 68 c32 37 77 87 100 111 l41 42 7 856 c3 471 4 856
1 856 -3 0 -20 -16 -38 -37z"/>
<path d="M3673 5763 c-7 -3 -13 -12 -13 -21 0 -15 2 -15 17 1 18 18 16 27 -4
20z"/>
<path d="M5888 5704 c-6 -6 2 -1415 7 -1422 2 -2 17 4 34 12 46 24 94 20 131
-11 l32 -26 -6 354 c-5 331 5 760 19 856 l7 42 -102 98 c-107 103 -113 107
-122 97z"/>
<path d="M3306 5563 c4 -66 2 -137 -4 -161 -8 -35 -8 -41 3 -32 7 6 16 22 19
35 4 14 13 25 21 25 8 0 15 4 15 8 0 13 30 44 73 76 21 16 35 31 32 34 -3 3 8
11 25 18 17 7 30 21 31 31 0 10 2 26 4 36 5 26 -20 34 -127 42 l-97 7 5 -119z"/>
<path d="M2805 5641 c-3 -5 -1 -12 5 -16 5 -3 10 1 10 9 0 18 -6 21 -15 7z"/>
<path d="M3836 5579 c-27 -39 -130 -142 -161 -161 -28 -16 -28 -18 -7 -18 20
0 22 -5 22 -51 0 -27 -3 -48 -7 -46 -5 3 -7 -321 -5 -721 l2 -725 23 -16 c12
-8 57 -48 100 -90 l77 -74 0 930 c0 512 -3 945 -6 962 -8 36 -17 39 -38 10z"/>
<path d="M5327 5582 c-10 -10 -14 -22 -10 -27 5 -4 3 -5 -4 -1 -6 3 -18 -3
-27 -16 -20 -28 -12 -36 14 -13 19 18 20 17 20 -3 0 -12 -4 -22 -10 -22 -5 0
-10 -13 -10 -30 0 -29 -13 -40 -25 -20 -3 6 -11 10 -17 10 -6 0 -9 -3 -6 -6 3
-3 -9 -21 -28 -39 -19 -19 -34 -40 -34 -46 0 -7 -7 -20 -16 -30 -13 -15 -16
-79 -20 -496 -2 -263 -1 -732 2 -1043 l7 -565 93 15 94 15 0 1167 c0 643 -2
1168 -3 1168 -2 0 -11 -8 -20 -18z"/>
<path d="M3161 5553 c-1 -36 -4 -43 -21 -43 -11 0 -20 -4 -20 -10 0 -5 -5 -10
-11 -10 -5 0 -7 5 -4 10 12 19 -21 10 -35 -10 -10 -14 -16 -16 -22 -7 -5 8 -8
6 -9 -8 l0 -20 -9 20 c-5 11 -10 36 -11 55 -1 25 -4 17 -8 -25 -4 -33 -3 -61
1 -63 12 -6 9 -30 -4 -35 -7 -3 -3 -6 10 -6 12 -1 22 -5 22 -11 0 -5 7 -10 16
-10 8 0 13 -4 9 -9 -10 -16 13 -22 59 -16 l44 7 4 86 c3 47 1 100 -3 117 -6
28 -7 27 -8 -12z"/>
<path d="M4419 5525 c-1 -16 -2 -508 -3 -1092 -1 -944 0 -1063 14 -1063 8 0
52 -13 98 -29 l82 -29 0 982 c-1 671 -4 975 -11 964 -5 -10 -16 -18 -23 -18
-16 0 -36 43 -36 78 0 16 -8 32 -19 39 -22 14 -35 94 -14 86 7 -3 13 -10 13
-15 0 -6 6 -8 14 -5 14 6 40 -15 31 -25 -3 -2 2 -5 10 -5 12 0 10 6 -6 23 -12
13 -26 21 -30 18 -4 -2 -13 6 -20 18 -13 24 -39 53 -39 43 0 -14 -42 18 -50
38 -8 20 -9 20 -11 -8z"/>
<path d="M6410 5372 c-43 -42 -47 -43 -98 -39 l-53 4 3 -878 3 -878 40 35 c22
19 65 52 96 72 l57 37 4 825 c2 454 1 834 -2 845 -4 18 -10 16 -50 -23z"/>
<path d="M7907 5303 c-4 -3 -7 -32 -7 -63 l0 -57 77 -7 c42 -3 153 -6 248 -6
194 0 205 4 205 73 0 66 -3 67 -274 67 -133 0 -246 -3 -249 -7z"/>
<path d="M2803 5138 c2 -94 6 -130 16 -140 11 -11 13 -11 7 0 -4 7 -11 70 -16
140 l-8 127 1 -127z"/>
<path d="M3477 5214 c-14 -18 -14 -22 -3 -18 24 9 30 -40 16 -117 -14 -71 -33
-90 -44 -44 -6 22 -12 25 -52 25 -28 0 -43 4 -39 10 16 26 -17 5 -51 -32 -29
-33 -35 -44 -22 -46 24 -5 29 -69 28 -406 l-1 -306 83 -107 c46 -59 88 -115
94 -126 8 -15 13 133 16 579 3 330 3 602 -1 606 -3 3 -14 -4 -24 -18z m-122
-172 c-3 -3 -11 0 -18 7 -9 10 -8 11 6 5 10 -3 15 -9 12 -12z"/>
<path d="M4925 5169 c-24 -16 -42 -19 -87 -16 l-57 5 -3 -107 c-2 -58 -2 -483
0 -943 l3 -838 57 0 c31 -1 76 -5 99 -9 l42 -8 5 916 c2 504 6 939 8 966 3 44
1 50 -17 52 -11 1 -33 -7 -50 -18z m60 1 c3 -6 -1 -7 -9 -4 -18 7 -21 14 -7
14 6 0 13 -4 16 -10z"/>
<path d="M7890 4991 c-5 -11 -10 -37 -10 -59 0 -38 2 -40 38 -46 20 -3 150 -6
288 -6 230 0 254 2 274 18 16 13 23 29 22 51 -2 62 4 61 -313 61 -275 0 -289
-1 -299 -19z"/>
<path d="M2841 4884 c0 -11 3 -14 6 -6 3 7 2 16 -1 19 -3 4 -6 -2 -5 -13z"/>
<path d="M3102 4825 c-33 -33 -34 -35 -23 -83 13 -61 49 -160 62 -167 5 -4 9
52 9 139 0 80 -3 146 -7 146 -5 0 -23 -16 -41 -35z"/>
<path d="M2851 4835 c0 -11 4 -27 9 -35 9 -13 10 -13 9 0 0 8 -4 24 -9 35 l-9
20 0 -20z"/>
<path d="M2602 4810 c0 -14 2 -19 5 -12 2 6 2 18 0 25 -3 6 -5 1 -5 -13z"/>
<path d="M2868 4753 c5 -21 7 -23 10 -9 2 10 0 22 -6 28 -6 6 -7 0 -4 -19z"/>
<path d="M2882 4700 c0 -14 2 -19 5 -12 2 6 2 18 0 25 -3 6 -5 1 -5 -13z"/>
<path d="M7880 4711 c-30 -5 -36 -11 -44 -44 -8 -31 -7 -41 8 -55 15 -15 43
-17 294 -14 258 3 278 4 296 22 17 16 18 25 10 57 l-9 38 -260 1 c-143 1 -276
-1 -295 -5z"/>
<path d="M7800 4401 c-16 -31 -13 -88 6 -95 9 -3 123 -6 253 -6 218 0 239 2
254 18 19 21 22 54 7 83 -10 18 -24 19 -260 19 -236 0 -250 -1 -260 -19z"/>
<path d="M3094 4182 c0 -10 6 -19 13 -19 8 0 9 6 2 19 -5 10 -11 18 -12 18 -2
0 -3 -8 -3 -18z"/>
<path d="M7910 4120 l-135 -5 -9 -38 c-18 -71 -15 -72 210 -75 193 -3 200 -2
217 19 21 26 22 72 1 93 -16 17 -20 17 -284 6z"/>
<path d="M2876 4078 c3 -4 9 -8 15 -8 5 0 9 4 9 8 0 5 -7 9 -15 9 -8 0 -12 -4
-9 -9z"/>
<path d="M2936 3975 c4 -8 10 -15 14 -15 4 0 13 -13 20 -30 7 -16 20 -35 29
-42 14 -12 15 -11 2 5 -12 15 -12 17 3 11 9 -3 16 -1 16 5 0 6 -11 16 -25 21
-14 5 -25 15 -25 22 0 7 -9 19 -20 25 -16 11 -18 10 -14 -2z"/>
<path d="M5885 3686 c-1 -333 -4 -316 58 -274 15 11 53 30 85 43 l57 23 3 251
c1 138 1 251 -2 251 -2 0 -20 -7 -41 -16 -42 -17 -101 -12 -132 11 -10 8 -20
14 -23 15 -3 0 -5 -137 -5 -304z"/>
<path d="M3040 3940 c0 -13 7 -20 20 -20 13 0 20 -7 20 -20 0 -13 7 -20 20
-20 13 0 20 -7 20 -20 0 -13 7 -20 20 -20 17 0 20 7 20 40 l0 40 -40 0 c-33 0
-40 3 -40 20 0 13 -7 20 -20 20 -13 0 -20 -7 -20 -20z"/>
<path d="M3305 3890 c21 -22 41 -40 44 -40 3 0 -13 18 -34 40 -21 22 -41 40
-44 40 -3 0 13 -18 34 -40z"/>
<path d="M3060 3800 c0 -5 5 -10 11 -10 5 0 7 5 4 10 -3 6 -8 10 -11 10 -2 0
-4 -4 -4 -10z"/>
<path d="M3136 3712 c-3 -6 -1 -14 5 -17 14 -9 20 -2 10 14 -6 8 -11 9 -15 3z"/>
<path d="M2828 3490 c-41 -22 -77 -73 -85 -124 -8 -49 35 -139 79 -166 75 -46
173 -10 222 80 33 61 31 101 -8 160 -44 67 -134 89 -208 50z"/>
<path d="M3762 3468 c7 -15 15 -23 17 -17 2 6 -4 18 -13 27 -15 15 -15 15 -4
-10z"/>
<path d="M7325 3478 c-141 -49 -166 -204 -51 -306 43 -37 88 -48 144 -33 57
16 95 51 122 113 38 90 6 172 -84 214 -55 26 -84 28 -131 12z"/>
</g>
</svg>
