<svg xmlns="http://www.w3.org/2000/svg" xmlns:xlink="http://www.w3.org/1999/xlink" width="500" zoomAndPan="magnify" viewBox="0 0 375 374.999991" height="500" preserveAspectRatio="xMidYMid meet" version="1.0"><defs><g/><clipPath id="6a2f1e728e"><path d="M 179.1875 200.550781 L 295 200.550781 L 295 234 L 179.1875 234 Z M 179.1875 200.550781 " clip-rule="nonzero"/></clipPath><clipPath id="bd93ee27bb"><path d="M 129 96.820312 L 189 96.820312 L 189 161 L 129 161 Z M 129 96.820312 " clip-rule="nonzero"/></clipPath><clipPath id="8655c0ab0d"><path d="M 145 104 L 192.421875 104 L 192.421875 137 L 145 137 Z M 145 104 " clip-rule="nonzero"/></clipPath></defs><g fill="#dab34a" fill-opacity="1"><g transform="translate(116.880063, 220.900173)"><g><path d="M 77.390625 0.96875 C 73.585938 0.96875 70.546875 0.113281 68.265625 -1.59375 C 65.992188 -3.3125 64 -5.929688 62.28125 -9.453125 C 60.570312 -12.984375 58.601562 -17.441406 56.375 -22.828125 C 54.332031 -27.929688 52.613281 -32.222656 51.21875 -35.703125 C 49.832031 -39.179688 48.488281 -41.960938 47.1875 -44.046875 C 45.882812 -46.140625 44.304688 -47.648438 42.453125 -48.578125 C 40.597656 -49.503906 38.140625 -49.96875 35.078125 -49.96875 L 26.859375 -49.96875 L 26.859375 -17.671875 C 26.859375 -12.660156 27.207031 -8.972656 27.90625 -6.609375 C 28.601562 -4.242188 30.113281 -2.691406 32.4375 -1.953125 L 32.4375 0 L 6.546875 0 L 6.546875 -1.953125 C 8.859375 -2.691406 10.363281 -4.242188 11.0625 -6.609375 C 11.757812 -8.972656 12.109375 -12.660156 12.109375 -17.671875 L 12.109375 -79.75 C 12.109375 -84.757812 11.757812 -88.445312 11.0625 -90.8125 C 10.363281 -93.1875 8.859375 -94.742188 6.546875 -95.484375 L 6.546875 -97.4375 L 35.765625 -97.4375 C 43.378906 -97.4375 49.570312 -96.804688 54.34375 -95.546875 C 59.125 -94.296875 62.8125 -92.625 65.40625 -90.53125 C 68.007812 -88.445312 69.820312 -86.0625 70.84375 -83.375 C 71.863281 -80.6875 72.375 -77.945312 72.375 -75.15625 C 72.375 -68.757812 70.144531 -63.332031 65.6875 -58.875 C 61.238281 -54.425781 54.375 -51.644531 45.09375 -50.53125 C 48.988281 -50.0625 52.210938 -49.269531 54.765625 -48.15625 C 57.316406 -47.039062 59.5 -45.4375 61.3125 -43.34375 C 63.125 -41.257812 64.769531 -38.617188 66.25 -35.421875 C 67.738281 -32.222656 69.410156 -28.300781 71.265625 -23.65625 C 73.765625 -17.53125 75.710938 -12.890625 77.109375 -9.734375 C 78.503906 -6.585938 79.800781 -4.476562 81 -3.40625 C 82.207031 -2.34375 83.648438 -1.8125 85.328125 -1.8125 C 85.691406 -1.8125 86.035156 -1.8125 86.359375 -1.8125 C 86.691406 -1.8125 87.039062 -1.859375 87.40625 -1.953125 L 87.40625 0 C 85.832031 0.375 84.070312 0.628906 82.125 0.765625 C 80.175781 0.898438 78.597656 0.96875 77.390625 0.96875 Z M 26.859375 -52.203125 L 35.765625 -52.203125 C 41.054688 -52.203125 45.300781 -53.082031 48.5 -54.84375 C 51.707031 -56.601562 54.03125 -58.988281 55.46875 -62 C 56.90625 -65.019531 57.625 -68.296875 57.625 -71.828125 C 57.625 -75.628906 56.785156 -79.316406 55.109375 -82.890625 C 53.441406 -86.460938 50.796875 -89.40625 47.171875 -91.71875 C 43.554688 -94.039062 38.828125 -95.203125 32.984375 -95.203125 C 31.035156 -95.203125 28.992188 -95.0625 26.859375 -94.78125 Z M 26.859375 -52.203125 "/></g></g></g><g clip-path="url(#6a2f1e728e)"><path fill="#dab34a" d="M 267.035156 200.644531 L 266.75 200.648438 C 262.011719 200.578125 255.875 201.648438 248.335938 203.863281 C 245.734375 204.667969 243.488281 205.4375 241.601562 206.167969 L 218.78125 215.402344 C 214.183594 217.046875 210.339844 218.105469 207.246094 218.574219 C 201.179688 219.46875 195.402344 219.132812 189.90625 217.570312 C 185.023438 216.019531 181.507812 213.355469 179.355469 209.578125 C 179.578125 211.203125 180.433594 213.269531 181.921875 215.773438 C 183.886719 219.242188 186.996094 221.90625 191.242188 223.769531 C 196.023438 225.632812 201.460938 226.394531 207.558594 226.0625 C 210.832031 225.882812 215.410156 224.898438 221.289062 223.105469 C 227.066406 221.101562 235.492188 217.820312 246.566406 213.265625 C 251.972656 211.425781 255.324219 210.371094 256.613281 210.097656 C 263.246094 208.527344 269.078125 208.226562 274.109375 209.195312 C 280.007812 210.128906 284.898438 213.820312 288.773438 220.277344 C 291.683594 225.90625 291.34375 230.464844 287.757812 233.960938 C 291.722656 230.957031 293.871094 227.808594 294.191406 224.515625 C 294.757812 219.605469 293.914062 215.445312 291.664062 212.035156 C 286.8125 204.609375 278.601562 200.8125 267.035156 200.644531 " fill-opacity="1" fill-rule="nonzero"/></g><path fill="#dab34a" d="M 265.617188 216.09375 L 265.460938 216.085938 C 262.019531 215.753906 257.480469 216.511719 251.847656 218.355469 C 249.542969 219 243.324219 221.695312 233.191406 226.433594 C 229.953125 227.578125 227.394531 228.535156 225.523438 229.296875 C 224.554688 229.648438 223.46875 229.996094 222.269531 230.339844 C 216.121094 232.042969 211.632812 232.699219 208.804688 232.3125 L 211.21875 232.832031 C 213.96875 233.578125 215.796875 234.03125 216.703125 234.1875 C 217.929688 234.441406 219.449219 234.628906 221.257812 234.742188 C 226.003906 234.855469 229.882812 234.382812 232.902344 233.328125 C 235.601562 232.417969 237.226562 231.816406 237.777344 231.527344 C 239.683594 230.722656 243.738281 228.882812 249.9375 226.011719 L 253.566406 224.488281 C 257.097656 223.167969 260.828125 222.066406 264.757812 221.1875 C 272.96875 219.644531 278.101562 220.707031 280.15625 224.378906 C 279.234375 221.644531 277.78125 219.753906 275.800781 218.699219 C 273.480469 217.296875 270.085938 216.429688 265.617188 216.09375 " fill-opacity="1" fill-rule="nonzero"/><g clip-path="url(#bd93ee27bb)"><path fill="#dab34a" d="M 129.828125 96.828125 L 129.785156 97.082031 C 129.058594 103.019531 131.238281 108.019531 136.320312 112.085938 C 137.320312 112.828125 138.757812 113.5 140.632812 114.109375 L 159.371094 118.425781 C 162.078125 119.113281 164.089844 119.785156 165.40625 120.441406 C 170.816406 123.554688 174.886719 127.285156 177.625 131.632812 C 181.410156 137.363281 182.585938 142.855469 181.140625 148.101562 C 179.242188 153.101562 176.578125 155.433594 173.140625 155.097656 C 171.0625 154.367188 169.789062 153.25 169.316406 151.746094 C 168.71875 150.023438 169.027344 147.960938 170.238281 145.554688 C 167.765625 148.828125 166.65625 151.140625 166.914062 152.484375 C 166.835938 154.726562 167.882812 156.882812 170.046875 158.953125 C 173.488281 161.394531 177.046875 161.449219 180.722656 159.121094 C 184.851562 156.367188 187.328125 152.390625 188.152344 147.183594 C 188.949219 142.582031 188.425781 137.988281 186.589844 133.398438 C 184.597656 128.589844 181.78125 124.574219 178.140625 121.351562 C 175.339844 118.648438 170.824219 116.316406 164.59375 114.355469 C 161.539062 113.324219 153.964844 111.8125 141.871094 109.8125 C 140.949219 109.625 139.445312 109.152344 137.351562 108.402344 C 132.359375 106.078125 129.851562 102.21875 129.828125 96.828125 " fill-opacity="1" fill-rule="nonzero"/></g><path fill="#dab34a" d="M 133.8125 112.773438 L 133.816406 112.773438 C 135.753906 115.246094 136.988281 116.691406 137.511719 117.105469 C 138.75 118.246094 140.078125 119.199219 141.492188 119.960938 C 144.882812 121.640625 147.285156 122.675781 148.695312 123.074219 C 151.386719 123.773438 155.460938 124.714844 160.910156 125.898438 C 162.378906 126.304688 164.164062 126.949219 166.265625 127.835938 C 170.003906 129.585938 173.152344 132.152344 175.714844 135.542969 C 173.136719 130.753906 170.066406 127.4375 166.507812 125.589844 C 164.960938 124.75 163.195312 124.03125 161.203125 123.441406 C 160.554688 123.238281 159.472656 122.957031 157.957031 122.605469 L 149.285156 120.683594 C 147.046875 120.074219 144.59375 119.285156 141.921875 118.320312 C 138.507812 116.851562 135.804688 115 133.8125 112.773438 " fill-opacity="1" fill-rule="nonzero"/><g clip-path="url(#8655c0ab0d)"><path fill="#dab34a" d="M 145.378906 104.671875 L 145.375 104.671875 C 147.585938 105.683594 148.960938 106.273438 149.507812 106.445312 L 163.3125 110.140625 C 164.660156 110.5 166.199219 110.988281 167.929688 111.605469 C 170.859375 112.652344 173.734375 114.097656 176.546875 115.945312 C 185.304688 122.722656 190.511719 129.550781 192.171875 136.425781 C 191.523438 131.816406 189.941406 127.671875 187.421875 124 C 184.660156 120.085938 181.1875 116.609375 177.007812 113.570312 C 174.144531 111.652344 170.398438 110.011719 165.761719 108.648438 C 161.84375 107.507812 156.21875 106.558594 148.890625 105.800781 C 147.761719 105.574219 146.59375 105.195312 145.378906 104.671875 " fill-opacity="1" fill-rule="nonzero"/></g></svg>