<svg xmlns="http://www.w3.org/2000/svg" xmlns:xlink="http://www.w3.org/1999/xlink" width="500" zoomAndPan="magnify" viewBox="0 0 375 374.999991" height="500" preserveAspectRatio="xMidYMid meet" version="1.0"><defs><g/></defs><g fill="#ffd450" fill-opacity="1"><g transform="translate(79.832694, 267.278881)"><g><path d="M 140.203125 -0.4375 L 117.09375 -0.4375 L 80.328125 -67.5625 C 78.128906 -71.382812 74.832031 -73.296875 70.4375 -73.296875 L 35 -73.296875 L 35 -14.09375 C 35 -11.300781 35.804688 -8.804688 37.421875 -6.609375 C 38.878906 -4.398438 40.859375 -2.785156 43.359375 -1.765625 L 46.875 -0.4375 L 11 -0.4375 L 14.53125 -1.765625 C 17.019531 -2.785156 19.070312 -4.398438 20.6875 -6.609375 C 22.15625 -8.804688 22.890625 -11.300781 22.890625 -14.09375 L 22.890625 -140.640625 C 22.890625 -143.429688 22.15625 -145.925781 20.6875 -148.125 C 19.070312 -150.320312 17.019531 -151.9375 14.53125 -152.96875 L 11 -154.28125 L 66.25 -154.28125 C 77.101562 -154.28125 85.976562 -153.253906 92.875 -151.203125 C 99.769531 -149.003906 105.203125 -146.070312 109.171875 -142.40625 C 113.128906 -138.726562 115.84375 -134.472656 117.3125 -129.640625 C 118.78125 -124.648438 119.515625 -119.363281 119.515625 -113.78125 C 119.515625 -109.382812 119.070312 -105.128906 118.1875 -101.015625 C 117.164062 -96.765625 115.476562 -92.953125 113.125 -89.578125 C 110.632812 -86.203125 107.332031 -83.269531 103.21875 -80.78125 C 98.96875 -78.132812 93.613281 -76.222656 87.15625 -75.046875 C 88.332031 -74.753906 89.359375 -74.019531 90.234375 -72.84375 C 90.972656 -71.675781 91.5625 -70.722656 92 -69.984375 C 93.03125 -68.078125 94.273438 -65.804688 95.734375 -63.171875 C 97.203125 -60.378906 98.816406 -57.441406 100.578125 -54.359375 C 102.191406 -51.273438 103.953125 -48.125 105.859375 -44.90625 C 107.617188 -41.53125 109.378906 -38.226562 111.140625 -35 C 115.109375 -27.507812 119.363281 -19.65625 123.90625 -11.4375 C 126.113281 -7.1875 129.5625 -4.109375 134.25 -2.203125 Z M 66.6875 -79.453125 C 72.113281 -79.453125 77.320312 -79.894531 82.3125 -80.78125 C 87.300781 -81.507812 91.773438 -83.117188 95.734375 -85.609375 C 99.554688 -87.960938 102.640625 -91.410156 104.984375 -95.953125 C 107.328125 -100.503906 108.5 -106.445312 108.5 -113.78125 C 108.5 -121.125 107.328125 -127.066406 104.984375 -131.609375 C 102.640625 -136.160156 99.554688 -139.6875 95.734375 -142.1875 C 91.773438 -144.53125 87.300781 -146.140625 82.3125 -147.015625 C 77.175781 -147.753906 71.96875 -148.125 66.6875 -148.125 L 35 -148.125 L 35 -79.671875 L 66.6875 -79.671875 Z M 66.6875 -79.453125 "/></g></g></g><g fill="#ffd450" fill-opacity="1"><g transform="translate(183.641257, 267.278881)"><g><path d="M 140.203125 -0.4375 L 117.09375 -0.4375 L 80.328125 -67.5625 C 78.128906 -71.382812 74.832031 -73.296875 70.4375 -73.296875 L 35 -73.296875 L 35 -14.09375 C 35 -11.300781 35.804688 -8.804688 37.421875 -6.609375 C 38.878906 -4.398438 40.859375 -2.785156 43.359375 -1.765625 L 46.875 -0.4375 L 11 -0.4375 L 14.53125 -1.765625 C 17.019531 -2.785156 19.070312 -4.398438 20.6875 -6.609375 C 22.15625 -8.804688 22.890625 -11.300781 22.890625 -14.09375 L 22.890625 -140.640625 C 22.890625 -143.429688 22.15625 -145.925781 20.6875 -148.125 C 19.070312 -150.320312 17.019531 -151.9375 14.53125 -152.96875 L 11 -154.28125 L 66.25 -154.28125 C 77.101562 -154.28125 85.976562 -153.253906 92.875 -151.203125 C 99.769531 -149.003906 105.203125 -146.070312 109.171875 -142.40625 C 113.128906 -138.726562 115.84375 -134.472656 117.3125 -129.640625 C 118.78125 -124.648438 119.515625 -119.363281 119.515625 -113.78125 C 119.515625 -109.382812 119.070312 -105.128906 118.1875 -101.015625 C 117.164062 -96.765625 115.476562 -92.953125 113.125 -89.578125 C 110.632812 -86.203125 107.332031 -83.269531 103.21875 -80.78125 C 98.96875 -78.132812 93.613281 -76.222656 87.15625 -75.046875 C 88.332031 -74.753906 89.359375 -74.019531 90.234375 -72.84375 C 90.972656 -71.675781 91.5625 -70.722656 92 -69.984375 C 93.03125 -68.078125 94.273438 -65.804688 95.734375 -63.171875 C 97.203125 -60.378906 98.816406 -57.441406 100.578125 -54.359375 C 102.191406 -51.273438 103.953125 -48.125 105.859375 -44.90625 C 107.617188 -41.53125 109.378906 -38.226562 111.140625 -35 C 115.109375 -27.507812 119.363281 -19.65625 123.90625 -11.4375 C 126.113281 -7.1875 129.5625 -4.109375 134.25 -2.203125 Z M 66.6875 -79.453125 C 72.113281 -79.453125 77.320312 -79.894531 82.3125 -80.78125 C 87.300781 -81.507812 91.773438 -83.117188 95.734375 -85.609375 C 99.554688 -87.960938 102.640625 -91.410156 104.984375 -95.953125 C 107.328125 -100.503906 108.5 -106.445312 108.5 -113.78125 C 108.5 -121.125 107.328125 -127.066406 104.984375 -131.609375 C 102.640625 -136.160156 99.554688 -139.6875 95.734375 -142.1875 C 91.773438 -144.53125 87.300781 -146.140625 82.3125 -147.015625 C 77.175781 -147.753906 71.96875 -148.125 66.6875 -148.125 L 35 -148.125 L 35 -79.671875 L 66.6875 -79.671875 Z M 66.6875 -79.453125 "/></g></g></g></svg>